<?xml version="1.0" encoding="UTF-8" standalone="no"?>
<!-- Created with Inkscape (http://www.inkscape.org/) -->

<svg
   xmlns:dc="http://purl.org/dc/elements/1.1/"
   xmlns:cc="http://creativecommons.org/ns#"
   xmlns:rdf="http://www.w3.org/1999/02/22-rdf-syntax-ns#"
   xmlns:svg="http://www.w3.org/2000/svg"
   xmlns="http://www.w3.org/2000/svg"
   xmlns:sodipodi="http://sodipodi.sourceforge.net/DTD/sodipodi-0.dtd"
   xmlns:inkscape="http://www.inkscape.org/namespaces/inkscape"
   width="512"
   height="512"
   viewBox="0 0 135.46666 135.46667"
   version="1.1"
   id="svg8"
   inkscape:version="0.92.2 (5c3e80d, 2017-08-06)"
   sodipodi:docname="logo-jb.svg">
  <defs
     id="defs2" />
  <sodipodi:namedview
     id="base"
     pagecolor="#ffffff"
     bordercolor="#666666"
     borderopacity="1.0"
     inkscape:pageopacity="0.0"
     inkscape:pageshadow="2"
     inkscape:zoom="0.7"
     inkscape:cx="392.99154"
     inkscape:cy="232.0824"
     inkscape:document-units="px"
     inkscape:current-layer="layer1"
     showgrid="false"
     units="px"
     inkscape:window-width="1366"
     inkscape:window-height="705"
     inkscape:window-x="-8"
     inkscape:window-y="-8"
     inkscape:window-maximized="1" />
  <metadata
     id="metadata5">
    <rdf:RDF>
      <cc:Work
         rdf:about="">
        <dc:format>image/svg+xml</dc:format>
        <dc:type
           rdf:resource="http://purl.org/dc/dcmitype/StillImage" />
        <dc:title></dc:title>
      </cc:Work>
    </rdf:RDF>
  </metadata>
  <g
     inkscape:label="Layer 1"
     inkscape:groupmode="layer"
     id="layer1"
     transform="translate(0,-161.53331)">
    <path
       style="stroke-width:0.26458332"
       d="m 60.899621,193.41686 c -2.046145,-0.48254 -5.865384,1.86119 -1.946199,-0.22582 4.823224,-2.41845 9.794519,-4.64298 14.157353,-7.86115 -7.643819,1.69306 -11.71323,9.56803 -12.968595,16.6899 -1.916381,6.63646 -1.478574,13.89832 1.425619,20.17937 3.94058,11.84693 8.702699,24.24263 6.561094,36.93627 -1.707691,7.94055 -8.981085,12.84666 -15.335562,17.00904 -4.841728,2.80438 -9.682222,5.7817 -14.734798,8.11233 -9.776893,2.46961 -21.852313,-0.85514 -26.715048,-10.25747 -3.2999248,-6.50082 -2.7741933,-16.00119 4.006975,-20.0845 4.929663,-3.66672 10.829983,-5.61725 16.161807,-8.57918 0.668151,3.54012 -5.691524,3.99785 -7.173492,7.08969 -2.077548,1.39983 -4.275607,3.48188 -6.756428,3.7417 3.382079,-1.86971 9.740614,-5.67644 11.218754,-6.40108 -6.186993,5.56475 -3.892879,16.35927 2.519359,20.80521 5.667111,4.18008 13.299728,4.76201 19.968741,3.07331 -4.591621,2.81384 -9.284523,5.45718 -13.90824,8.21715 6.279135,-3.88019 13.002534,-8.6265 15.146241,-16.0913 0.640735,-9.31683 -0.604998,-18.74394 -3.970119,-27.46772 -1.965005,-6.74938 -5.260615,-13.32787 -5.433407,-20.45066 0.424436,-7.87423 2.166381,-16.20129 7.249572,-22.43861 5.782394,-6.04894 13.881139,-8.93813 21.316484,-12.32849 4.964511,0.19212 -1.197682,3.37284 -2.675092,4.42786 -2.709929,1.96124 -5.398322,3.95244 -8.115019,5.90415 z"
       id="path69"
       inkscape:connector-curvature="0" />
    <path
       style="stroke-width:0.26458332"
       d="m 82.066825,174.64414 c -5.907924,0.94008 -11.817121,1.87213 -17.725533,2.80913 10.30066,0.43966 20.700081,-0.98107 30.921278,0.85098 6.09691,3.3481 6.46777,11.24502 6.05044,17.3914 -0.4538,5.57245 1.81204,11.79205 -1.634123,16.79215 -6.163135,4.60222 -14.209647,2.36477 -21.295591,3.00141 -2.374131,0.073 -8.828686,-0.26868 -8.662235,0.17373 8.455809,1.38634 16.929971,3.0447 25.536873,2.77789 5.303526,0.89801 13.593076,-3.2499 16.173766,3.33171 2.46325,7.14836 0.93393,14.84735 1.31816,22.24883 0.0646,8.79735 -1.45481,17.49884 -1.55689,26.29354 0.31344,3.6822 -1.07318,7.5158 -4.75575,8.95186 -6.450257,2.63838 -13.636486,1.66579 -20.439919,1.97101 -10.593095,0.0724 -21.434973,-0.36863 -31.734373,2.48223 3.266742,0.73213 9.266639,-0.053 13.532086,0.23718 17.593889,0.004 35.263636,0.77874 52.793096,-1.02771 5.24224,-1.02836 9.46733,-6.36092 8.46617,-11.75805 -0.17007,-6.6867 0.59337,-13.32216 1.31631,-19.94214 0.50983,-10.21725 0.83071,-20.56551 -0.74734,-30.69835 -1.69763,-5.44932 -9.75325,-5.6575 -10.5733,-11.55652 0.29342,-8.86917 1.20068,-18.05057 -1.39477,-26.67031 -1.74725,-5.23258 -7.16162,-7.94059 -12.42509,-7.76481 -6.845001,-0.10502 -13.684064,0.45765 -20.530566,0.0972 -0.877571,-0.001 -1.75565,9.5e-4 -2.632699,0.008 z m -1.261422,43.62679 -0.698666,8e-5 z m 4.230232,-2.79466 c 0.781244,0.001 1.398594,0.003 0.251525,4.8e-4 z"
       id="path87"
       inkscape:connector-curvature="0"
       sodipodi:nodetypes="ccccccccccccccccccccccccccccccc" />
  </g>
</svg>
